<svg width="32" height="32" viewBox="0 0 32 32" fill="none" xmlns="http://www.w3.org/2000/svg">
<path opacity="0.2" d="M29 1C30.6569 1 32 2.34315 32 4V28C32 29.6569 30.6569 31 29 31H19V1L29 1Z" fill="#FFFFFF"/>
<path d="M3.5 8.36364C3.5 9.19206 4.17157 9.86364 5 9.86364C5.82843 9.86364 6.5 9.19206 6.5 8.36364H3.5ZM6.5 23.6364C6.5 22.8079 5.82843 22.1364 5 22.1364C4.17157 22.1364 3.5 22.8079 3.5 23.6364H6.5ZM6.5 8.36364V4H3.5V8.36364H6.5ZM7 3.5L18 3.5V0.5L7 0.5V3.5ZM18.5 4V28H21.5V4H18.5ZM18 28.5H7V31.5H18V28.5ZM6.5 28V23.6364H3.5V28H6.5ZM7 28.5C6.72386 28.5 6.5 28.2761 6.5 28H3.5C3.5 29.933 5.067 31.5 7 31.5V28.5ZM18.5 28C18.5 28.2761 18.2761 28.5 18 28.5V31.5C19.933 31.5 21.5 29.933 21.5 28H18.5ZM18 3.5C18.2761 3.5 18.5 3.72386 18.5 4H21.5C21.5 2.067 19.933 0.5 18 0.5V3.5ZM6.5 4C6.5 3.72386 6.72386 3.5 7 3.5V0.5C5.067 0.5 3.5 2.067 3.5 4H6.5Z" fill="#FFFFFF"/>
<path d="M13.25 16.0001H2M13.25 16.0001L10.125 13.5001V18.5001L13.25 16.0001Z" stroke="#FFFFFF" stroke-width="3" stroke-linecap="round" stroke-linejoin="round" fill="#FFFFFF"/>
</svg>
